<?xml version="1.0" encoding="UTF-8" standalone="no"?>
<svg
   xmlns:dc="http://purl.org/dc/elements/1.1/"
   xmlns:cc="http://creativecommons.org/ns#"
   xmlns:rdf="http://www.w3.org/1999/02/22-rdf-syntax-ns#"
   xmlns:svg="http://www.w3.org/2000/svg"
   xmlns="http://www.w3.org/2000/svg"
   xmlns:xlink="http://www.w3.org/1999/xlink"
   xmlns:sodipodi="http://sodipodi.sourceforge.net/DTD/sodipodi-0.dtd"
   xmlns:inkscape="http://www.inkscape.org/namespaces/inkscape"
   sodipodi:docname="ElectricShimmer.svg"
   inkscape:version="1.0 (4035a4fb49, 2020-05-01)"
   id="svg8"
   version="1.1"
   viewBox="0 0 88.230003 100.824"
   height="100.824mm"
   width="88.230003mm">
  <defs
     id="defs2">
    <inkscape:path-effect
       hide_knots="false"
       only_selected="false"
       apply_with_radius="true"
       apply_no_radius="true"
       use_knot_distance="true"
       flexible="false"
       chamfer_steps="1"
       radius="5"
       mode="F"
       method="auto"
       unit="px"
       satellites_param="F,0,0,1,0,1.3229167,0,1 @ F,0,0,1,0,1.3229167,0,1 @ F,0,0,1,0,1.3229167,0,1 @ F,0,0,1,0,1.3229167,0,1 @ F,0,0,1,0,1.3229167,0,1 @ F,0,0,1,0,1.3229167,0,1"
       lpeversion="1"
       is_visible="true"
       id="path-roundCorner"
       effect="fillet_chamfer" />
    <linearGradient
       id="linearGradientColor"
       inkscape:collect="always">
      <stop
         id="stop977"
         offset="0"
         style="stop-color:#B4F0E6;stop-opacity:1;" />
      <stop
         id="stop979"
         offset="1"
         style="stop-color:#B4F0E6;stop-opacity:0;" />
    </linearGradient>
    <linearGradient
       y2="35.068283"
       x2="20.357834"
       y1="11.168324"
       x1="20.209129"
       gradientUnits="userSpaceOnUse"
       id="linearGradient"
       xlink:href="#linearGradientColor"
       inkscape:collect="always"
       gradientTransform="matrix(2.1630394,0,0,2.1630394,0.00952143,0.4122082)" />
  </defs>
  <sodipodi:namedview
     inkscape:window-maximized="1"
     inkscape:window-y="-8"
     inkscape:window-x="-8"
     inkscape:window-height="1052"
     inkscape:window-width="1920"
     showgrid="false"
     inkscape:document-rotation="0"
     inkscape:current-layer="layer1"
     inkscape:document-units="mm"
     inkscape:cy="248.17804"
     inkscape:cx="152.75739"
     inkscape:zoom="0.98994949"
     inkscape:pageshadow="2"
     inkscape:pageopacity="0"
     borderopacity="1.0"
     bordercolor="#666666"
     pagecolor="#a4a4a4"
     id="base" />
  <metadata
     id="metadata5">
    <rdf:RDF>
      <cc:Work
         rdf:about="">
        <dc:format>image/svg+xml</dc:format>
        <dc:type
           rdf:resource="http://purl.org/dc/dcmitype/StillImage" />
        <dc:title />
      </cc:Work>
    </rdf:RDF>
  </metadata>
  <g
     id="layer1"
     inkscape:groupmode="layer"
     inkscape:label="Layer 1">
    <path
       inkscape:original-d="M -0.00818668,25.302443 43.799071,-0.35442325 87.922198,24.755341 88.238069,75.521971 44.43081,101.17884 0.30768341,76.069075 Z"
       inkscape:path-effect="#path-roundCorner"
       d="M 1.1333551,24.633869 42.657529,0.31415056 a 2.291359,2.291359 179.64351 0 1 2.291315,-0.0142565 L 86.772425,24.101024 a 2.291359,2.291359 59.64351 0 1 1.158004,1.977208 l 0.299409,48.120848 a 2.2913589,2.2913589 119.64351 0 1 -1.133311,1.991465 L 45.572352,100.51027 a 2.2913588,2.2913588 179.64351 0 1 -2.291315,0.0142 L 1.4574562,76.723392 A 2.291359,2.291359 59.643511 0 1 0.29945238,74.746184 L 4.4351138e-5,26.625334 A 2.2913589,2.2913589 119.64351 0 1 1.1333551,24.633869 Z"
       style="fill:#ffffff"
       id="whiteHexagon" />
    <path
       inkscape:original-d="M 21.417813,37.633152 43.722663,24.569733 66.188341,37.354589 66.349163,63.202867 44.044312,76.266286 21.578635,63.481428 Z"
       inkscape:path-effect="#path-roundCorner"
       d="M 22.559355,36.964578 42.581121,25.238307 a 2.2913591,2.2913591 179.64351 0 1 2.291315,-0.01426 l 20.166132,11.476222 a 2.2913582,2.2913582 59.643516 0 1 1.158004,1.977208 l 0.14436,23.202496 a 2.2913595,2.2913595 119.64352 0 1 -1.133311,1.991465 L 45.185854,75.597712 a 2.2913589,2.2913589 179.64351 0 1 -2.291315,0.01426 L 22.728408,64.135745 a 2.2913585,2.2913585 59.643518 0 1 -1.158004,-1.977208 l -0.14436,-23.202494 a 2.2913595,2.2913595 119.64352 0 1 1.133311,-1.991465 z"
       style="fill:url(#linearGradient)"
       id="gradientHexagon" />
    <path
       id="drElectron"
       d="M 46.442669,44.110097 63.11051,0 29.077543,51.950736 41.680431,56.712939 25.012618,100.823 59.045517,48.872324 Z"
       style="fill:#ffff00;stroke-width:2.54577" />
  </g>
</svg>
